<?xml version="1.0" encoding="UTF-8"?>
<svg id="Layer_1" xmlns="http://www.w3.org/2000/svg" version="1.1" xmlns:xlink="http://www.w3.org/1999/xlink" viewBox="0 0 1501 309">
  <!-- Generator: Adobe Illustrator 30.5.1, SVG Export Plug-In . SVG Version: 2.1.4 Build 3)  -->
  <defs>
    <style>
      .st0 {
        fill: #fff;
      }

      .st1 {
        mask: url(#mask);
      }

      .st2 {
        fill: #231f20;
        font-family: Milkstore03-Clean, 'Milkstore 03';
        font-size: 23.2px;
      }

      .st3 {
        filter: url(#luminosity-noclip);
      }
    </style>
    <filter id="luminosity-noclip" x="19.3" y="133.7" width="271" height="41.3" color-interpolation-filters="sRGB" filterUnits="userSpaceOnUse">
      <feFlood flood-color="#fff" result="bg"/>
      <feBlend in="SourceGraphic" in2="bg"/>
    </filter>
    <mask id="mask" x="19.3" y="133.7" width="271" height="41.3" maskUnits="userSpaceOnUse">
      <g class="st3">
        <g>
          <text class="st2" transform="translate(24.8 162.3)"><tspan x="0" y="0">20</tspan></text>
          <text class="st2" transform="translate(257.8 162.3)"><tspan x="0" y="0">23</tspan></text>
        </g>
      </g>
    </mask>
  </defs>
  <g>
    <path class="st0" d="M432.8,135v25.9c0,.5-.2.7-.7.7h-75.2v-2.3c2.4-.8,4.2-2,5.6-3.7,1.4-1.6,2-3.5,2-5.6v-72.3c0-2.1-.7-4-2-5.6s-3.2-2.9-5.6-3.7v-2.3h37.8v2.3c-2.4.8-4.2,2-5.6,3.7s-2,3.5-2,5.6v63.5h34.1c2.1,0,4-.5,5.6-1.6,1.6-1.1,2.9-2.6,3.7-4.5h2.3Z"/>
    <path class="st0" d="M547.7,155.4c1.5,1.2,3.5,2.5,5.7,3.9v2.3h-37.3v-2.3c3.5-1.2,5.3-2.9,5.3-5.2s-.2-2-.7-3.1l-1.6-3.8h-45.6l-1.6,3.8c-.5,1.2-.7,2.2-.7,3.1,0,2.3,1.8,4,5.3,5.2v2.3h-37.3v-2.3c2.3-1.4,4.2-2.7,5.7-3.9,1.5-1.2,2.7-2.7,3.4-4.4l31.7-74.3c.5-1.2.7-2.2.7-3.1,0-2.3-1.8-4-5.3-5.2v-2.3h32.1c.4,0,.6.2.8.5l35.9,84.4c.7,1.7,1.9,3.2,3.4,4.4ZM510.7,127.4l-14.3-33.7-14.3,33.7h28.7Z"/>
    <path class="st0" d="M591.2,150c0,2.1.6,4,1.8,5.6,1.2,1.6,2.9,2.9,5,3.7v2.3h-36.2v-2.3c2.1-.8,3.8-2,5-3.7,1.2-1.6,1.8-3.5,1.8-5.6v-72.3c0-2.1-.6-4-1.8-5.6s-2.9-2.9-5-3.7v-2.3h25.1c.4,0,.7.1,1,.4l45.5,47.5v-36.3c0-2.1-.6-4-1.8-5.6-1.2-1.6-2.9-2.9-5-3.7v-2.3h36.2v2.3c-2.1.8-3.8,2-5,3.7s-1.8,3.5-1.8,5.6v85.3h-6.7l-58-58.3v45.3Z"/>
    <path class="st0" d="M766.4,108.8v35.8c-3.6,5.7-9.5,10.2-17.7,13.5-8.1,3.3-17.3,4.9-27.4,4.9s-18-2.2-26-6.6c-8-4.4-14.3-10.4-19-18-4.7-7.6-7-16.2-7-25.7s2.3-16.9,7-24.2c4.7-7.3,11-13.1,19-17.4,8-4.3,16.6-6.4,26-6.4,14.8,0,27.3,5,37.4,14.9,2.5,2.8,5.1,4.2,8.1,4.2s1.2,0,1.5-.1l1.5,1.8-4.4,3.7-15.3,10.8c-.4.4-.7.3-1-.1-3.6-4.6-7.6-8.2-11.8-10.8-4.2-2.5-9.6-3.8-16-3.8s-10.4,1.1-14.7,3.3c-4.4,2.2-7.8,5.4-10.3,9.6-2.5,4.1-3.8,9-3.8,14.7s1.3,11.1,3.8,15.6c2.5,4.5,5.9,8,10.3,10.4,4.4,2.5,9.3,3.7,14.7,3.7,9.8,0,17.3-1.7,22.5-5.1v-11.6h-11.6c-2.1,0-4,.5-5.6,1.4-1.6,1-2.9,2.3-3.7,3.9h-2.3v-22.4c0-.5.2-.7.7-.7h44.4c.5,0,.7.2.7.7Z"/>
    <path class="st0" d="M861.4,135v26.6h-82.6v-2.3c2.1-.8,3.8-2,5-3.7,1.2-1.6,1.8-3.5,1.8-5.6v-72.3c0-2.1-.6-4-1.8-5.6-1.2-1.6-2.9-2.9-5-3.7v-2.3h80.4v26.6h-2.3c-.8-1.9-2-3.4-3.7-4.5-1.6-1.1-3.5-1.6-5.6-1.6h-39.4v17.5h19.1c2.1,0,4-.6,5.6-1.8,1.6-1.2,2.9-2.9,3.7-5h2.3v33.4h-2.3c-.8-2.1-2-3.8-3.7-5-1.6-1.2-3.5-1.8-5.6-1.8h-19.1v17.3h41.6c2.1,0,4-.5,5.6-1.6,1.6-1.1,2.9-2.6,3.7-4.5h2.3Z"/>
    <path class="st0" d="M951.8,154.9c2.3,2,4.4,3.4,6.3,4.4v2.3h-28.7c-.4,0-.6-.2-.8-.5l-19.1-34.9h-8.6v23.9c0,2.1.6,4,1.8,5.6,1.2,1.6,2.9,2.9,5,3.7v2.3h-36.2v-2.3c2.1-.8,3.8-2,5-3.7,1.2-1.6,1.8-3.5,1.8-5.6v-72.3c0-2.1-.6-4-1.8-5.6-1.2-1.6-2.9-2.9-5-3.7v-2.3h49.1c7.7,0,14,1.5,18.7,4.6,4.7,3.1,8.1,6.9,10.1,11.5,2,4.6,3,9.6,3,14.7s-1.7,13-5.1,17.8-8.3,8.1-14.7,9.9l14.2,24.6c.9,1.8,2.5,3.7,4.8,5.7ZM900.9,107h18.4c3.7,0,6.6-.9,8.5-2.8,1.9-1.9,2.9-4.4,2.9-7.7s-1-5.8-2.9-7.6c-1.9-1.8-4.7-2.7-8.5-2.7h-18.4v20.9Z"/>
    <path class="st0" d="M1129.9,72.1c-1.2,1.6-1.8,3.5-1.8,5.6v72.3c0,2.1.6,4,1.8,5.6,1.2,1.6,2.9,2.9,5,3.7v2.3h-36.2v-2.3c2.1-.8,3.8-2,5-3.7,1.2-1.6,1.8-3.5,1.8-5.6v-50.8l-25.5,49.1c-.3.4-.5.4-.8,0l-25.5-49.1v50.8c0,2.1.6,4,1.8,5.6,1.2,1.6,2.9,2.9,5,3.7v2.3h-36.2v-2.3c2.1-.8,3.8-2,5-3.7,1.2-1.6,1.8-3.5,1.8-5.6v-72.3c0-2.1-.6-4-1.8-5.6-1.2-1.6-2.9-2.9-5-3.7v-2.3h42.7v2.3c-1.4.7-2,1.7-2,3s.2,1.4.5,2.3c.4.9.8,1.8,1.2,2.8l12.8,26.3,12.8-26.3c.5-1,.9-1.9,1.2-2.8.4-.9.5-1.6.5-2.3,0-1.3-.7-2.3-2-3v-2.3h42.7v2.3c-2.1.8-3.8,2-5,3.7Z"/>
    <path class="st0" d="M1228,135v26.6h-82.6v-2.3c2.1-.8,3.8-2,5-3.7,1.2-1.6,1.8-3.5,1.8-5.6v-72.3c0-2.1-.6-4-1.8-5.6-1.2-1.6-2.9-2.9-5-3.7v-2.3h80.4v26.6h-2.3c-.8-1.9-2-3.4-3.7-4.5-1.6-1.1-3.5-1.6-5.6-1.6h-39.4v17.5h19.1c2.1,0,4-.6,5.6-1.8,1.6-1.2,2.9-2.9,3.7-5h2.3v33.4h-2.3c-.8-2.1-2-3.8-3.7-5-1.6-1.2-3.5-1.8-5.6-1.8h-19.1v17.3h41.6c2.1,0,4-.5,5.6-1.6,1.6-1.1,2.9-2.6,3.7-4.5h2.3Z"/>
    <path class="st0" d="M1313.5,72.1c7,4,12.4,9.7,16.2,17,3.9,7.3,5.8,15.8,5.8,25.3s-2,17.8-6.1,24.9c-4.1,7.1-9.6,12.6-16.6,16.5-7,3.9-14.8,5.8-23.3,5.8h-51.2v-2.3c2.1-.8,3.8-2,5-3.7,1.2-1.6,1.8-3.5,1.8-5.6v-72.3c0-2.1-.6-4-1.8-5.6-1.2-1.6-2.9-2.9-5-3.7v-2.3h51.2c9,0,17,2,24,6ZM1306.4,133.9c4-4.8,5.9-11.3,5.9-19.5s-2-16.2-6-20.9c-4-4.6-9.6-7-16.8-7h-21.8v54.6h21.8c7.3,0,12.9-2.4,16.9-7.2Z"/>
    <path class="st0" d="M1343,159.3c2.1-.8,3.8-2,5-3.7,1.2-1.6,1.8-3.5,1.8-5.6v-72.3c0-2.1-.6-4-1.8-5.6-1.2-1.6-2.9-2.9-5-3.7v-2.3h36.2v2.3c-2.1.8-3.8,2-5,3.7-1.2,1.6-1.8,3.5-1.8,5.6v72.3c0,2.1.6,4,1.8,5.6,1.2,1.6,2.9,2.9,5,3.7v2.3h-36.2v-2.3Z"/>
    <path class="st0" d="M1495.3,155.4c1.5,1.2,3.5,2.5,5.7,3.9v2.3h-37.3v-2.3c3.5-1.2,5.3-2.9,5.3-5.2s-.2-2-.7-3.1l-1.6-3.8h-45.6l-1.6,3.8c-.5,1.2-.7,2.2-.7,3.1,0,2.3,1.8,4,5.3,5.2v2.3h-37.3v-2.3c2.3-1.4,4.2-2.7,5.7-3.9,1.5-1.2,2.7-2.7,3.4-4.4l31.7-74.3c.5-1.2.7-2.2.7-3.1,0-2.3-1.8-4-5.3-5.2v-2.3h32.1c.4,0,.6.2.8.5l35.9,84.4c.7,1.7,1.9,3.2,3.4,4.4ZM1458.3,127.4l-14.3-33.7-14.3,33.7h28.7Z"/>
  </g>
  <g>
    <path class="st0" d="M405.9,220c0,11.7-8.4,18.7-22.4,18.7h-15.9v18.2h-4.1v-55.6h19.9c14,0,22.4,7,22.4,18.7ZM401.7,220c0-9.6-6.4-15.1-18.3-15.1h-15.9v30.1h15.9c11.9,0,18.3-5.5,18.3-15Z"/>
    <path class="st0" d="M414.4,229.1c0-16.1,12.3-28.2,28.9-28.2s28.9,12,28.9,28.2-12.4,28.2-28.9,28.2-28.9-12.1-28.9-28.2ZM468.1,229.1c0-14.1-10.6-24.5-24.8-24.5s-24.9,10.4-24.9,24.5,10.6,24.5,24.9,24.5,24.8-10.4,24.8-24.5Z"/>
    <path class="st0" d="M523.9,256.9l-13.3-18.6c-1.7.2-3.5.4-5.4.4h-15.9v18.2h-4.1v-55.6h19.9c14,0,22.4,7,22.4,18.7s-4.8,14.9-13,17.4l13.9,19.5h-4.6ZM505.3,235.1c11.9,0,18.3-5.6,18.3-15.1s-6.4-15.1-18.3-15.1h-15.9v30.2h15.9Z"/>
    <path class="st0" d="M551.8,204.9h-20v-3.7h44.1v3.7h-20v52h-4.1v-52Z"/>
    <path class="st0" d="M589.1,204.9v23.8h29.6v3.7h-29.6v24.5h-4.1v-55.6h37.2v3.7h-33.1Z"/>
    <path class="st0" d="M628.4,229.1c0-16.1,12.3-28.2,28.9-28.2s28.9,12,28.9,28.2-12.4,28.2-28.9,28.2-28.9-12.1-28.9-28.2ZM682.1,229.1c0-14.1-10.6-24.5-24.8-24.5s-24.9,10.4-24.9,24.5,10.6,24.5,24.9,24.5,24.8-10.4,24.8-24.5Z"/>
    <path class="st0" d="M699.3,201.3h4.1v52h32v3.7h-36.1v-55.6Z"/>
    <path class="st0" d="M744.8,201.3h4.1v55.6h-4.1v-55.6Z"/>
    <path class="st0" d="M761.9,229.1c0-16.1,12.3-28.2,28.9-28.2s28.9,12,28.9,28.2-12.4,28.2-28.9,28.2-28.9-12.1-28.9-28.2ZM815.6,229.1c0-14.1-10.6-24.5-24.8-24.5s-24.9,10.4-24.9,24.5,10.6,24.5,24.9,24.5,24.8-10.4,24.8-24.5Z"/>
  </g>
  <g>
    <circle class="st0" cx="154.8" cy="154.3" r="140"/>
    <g>
      <path d="M173.7,306.9c-1.8,0-3.5-.2-5.3-.5l-5.5-1.1c-2.6-.5-5.3-.8-8-.8s-5.4.3-8,.8l-5.5,1.1c-1.7.4-3.5.5-5.3.5-4.4,0-8.8-1.1-12.7-3.3l-5-2.7c-4.8-2.6-10-4.2-15.4-4.7l-5.6-.6c-6.2-.6-12.1-3.4-16.4-7.9l-3.9-4c-3.8-3.9-8.3-7-13.3-9.1l-5.2-2.2c-5.8-2.4-10.5-6.8-13.4-12.4l-2.6-5c-2.5-4.9-5.9-9.1-10-12.6l-4.3-3.6c-4.8-4-8-9.6-9.1-15.8l-1-5.6c-.9-5.4-2.9-10.4-5.9-15l-3.1-4.7c-3.4-5.3-4.8-11.6-4.1-17.8l.7-5.6c.7-5.4.3-10.8-1.2-16l-1.5-5.4c-1.7-6-1.2-12.5,1.4-18.2l2.3-5.1c2.2-5,3.4-10.2,3.6-15.7v-5.6c.3-6.2,2.6-12.3,6.8-17l3.7-4.2c3.6-4.1,6.3-8.8,8-13.9l1.8-5.4c2-5.9,6-11,11.4-14.3l4.8-2.9c4.6-2.8,8.6-6.5,11.8-10.9l3.3-4.6c3.7-5.1,9-8.7,15.1-10.3l5.5-1.4c5.3-1.3,10.1-3.7,14.5-7l4.5-3.4c4.6-3.5,10.3-5.4,16.1-5.4s.9,0,1.3,0l5.6.3c.7,0,1.4,0,2,0,4.7,0,9.4-.8,13.9-2.5l5.3-1.9c2.9-1.1,6-1.6,9.1-1.6s6.2.5,9.1,1.6l5.3,1.9c4.5,1.6,9.1,2.4,13.9,2.4s1.4,0,2,0l5.6-.3c.4,0,.9,0,1.3,0,5.8,0,11.5,1.9,16.1,5.4l4.5,3.4c4.3,3.3,9.2,5.6,14.5,7l5.5,1.4c6.1,1.5,11.4,5.2,15.1,10.3l3.3,4.6c3.2,4.4,7.1,8.1,11.8,10.9l4.8,2.9c5.3,3.3,9.4,8.3,11.4,14.3l1.8,5.4c1.7,5.2,4.4,9.8,8,13.9l3.7,4.2c4.1,4.7,6.5,10.7,6.7,17v5.6c.3,5.4,1.5,10.7,3.7,15.7l2.3,5.1c2.6,5.7,3.1,12.2,1.4,18.2l-1.5,5.4c-1.5,5.3-1.9,10.6-1.2,16l.7,5.6c.8,6.2-.7,12.5-4.1,17.8l-3.1,4.7c-3,4.6-4.9,9.6-5.9,15l-1,5.6c-1.1,6.2-4.3,11.8-9.1,15.8l-4.3,3.6c-4.2,3.5-7.5,7.7-10,12.6l-2.6,5c-2.9,5.6-7.6,10-13.4,12.4l-5.2,2.2c-5,2.1-9.5,5.2-13.3,9.1l-3.9,4c-4.4,4.5-10.2,7.3-16.4,7.9l-5.6.6c-5.4.5-10.6,2.1-15.4,4.7l-5,2.7c-3.9,2.1-8.3,3.3-12.7,3.3ZM154.8,16.3c-76.1,0-138,61.9-138,138s61.9,138,138,138,138-61.9,138-138S230.9,16.3,154.8,16.3Z"/>
      <path class="st0" d="M154.8,4c2.9,0,5.7.5,8.4,1.5l5.3,1.9c4.7,1.7,9.6,2.6,14.5,2.6s1.4,0,2.2,0l5.6-.3c.4,0,.8,0,1.2,0,5.4,0,10.6,1.7,14.9,5l4.5,3.4c4.5,3.4,9.7,5.9,15.2,7.3l5.5,1.4c5.6,1.4,10.5,4.8,13.9,9.5l3.3,4.6c3.3,4.6,7.5,8.5,12.4,11.5l4.8,2.9c4.9,3,8.7,7.7,10.5,13.2l1.8,5.4c1.8,5.4,4.7,10.4,8.4,14.6l3.7,4.2c3.8,4.3,6,9.9,6.2,15.7v5.6c.3,5.7,1.6,11.3,3.9,16.5l2.3,5.1c2.4,5.3,2.8,11.2,1.3,16.8l-1.5,5.4c-1.5,5.5-2,11.2-1.3,16.8l.7,5.6c.7,5.8-.6,11.6-3.8,16.4l-3.1,4.7c-3.1,4.8-5.2,10.1-6.2,15.7l-1,5.6c-1,5.7-4,10.9-8.4,14.6l-4.3,3.6c-4.4,3.6-7.9,8.1-10.5,13.2l-2.6,5c-2.6,5.2-7,9.2-12.4,11.5l-5.2,2.2c-5.2,2.2-10,5.4-14,9.5l-3.9,4c-4,4.1-9.4,6.7-15.2,7.3l-5.6.6c-5.7.6-11.1,2.3-16.1,5l-5,2.7c-3.6,2-7.7,3-11.8,3s-3.3-.2-4.9-.5l-5.5-1.1c-2.8-.6-5.6-.9-8.4-.9s-5.7.3-8.4.9l-5.5,1.1c-1.6.3-3.3.5-4.9.5-4.1,0-8.1-1-11.8-3l-5-2.7c-5-2.7-10.5-4.4-16.1-5l-5.6-.6c-5.8-.6-11.1-3.2-15.2-7.3l-3.9-4c-4-4.1-8.7-7.3-14-9.5l-5.2-2.2c-5.3-2.2-9.7-6.3-12.4-11.5l-2.6-5c-2.6-5.1-6.2-9.6-10.5-13.2l-4.3-3.6c-4.4-3.7-7.4-8.9-8.4-14.6l-1-5.6c-1-5.6-3.1-10.9-6.2-15.7l-3.1-4.7c-3.2-4.9-4.5-10.7-3.8-16.4l.7-5.6c.7-5.6.3-11.4-1.3-16.8l-1.5-5.4c-1.6-5.6-1.1-11.5,1.3-16.8l2.3-5.1c2.3-5.2,3.6-10.8,3.8-16.5v-5.6c.3-5.8,2.5-11.3,6.3-15.7l3.7-4.2c3.8-4.3,6.6-9.2,8.4-14.6l1.8-5.4c1.8-5.5,5.6-10.2,10.5-13.2l4.8-2.9c4.8-3,9.1-6.9,12.4-11.5l3.3-4.6c3.4-4.7,8.3-8.1,13.9-9.5l5.5-1.4c5.5-1.4,10.7-3.9,15.2-7.3l4.5-3.4c4.3-3.3,9.5-5,14.9-5s.8,0,1.2,0l5.6.3c.7,0,1.4,0,2.2,0,5,0,9.9-.9,14.5-2.6l5.3-1.9c2.7-1,5.6-1.5,8.4-1.5M154.8,294.3c77.3,0,140-62.7,140-140S232.2,14.3,154.8,14.3,14.8,77,14.8,154.3s62.7,140,140,140M154.8,0c-3.4,0-6.7.6-9.8,1.7l-5.3,1.9c-4.2,1.5-8.7,2.3-13.2,2.3s-1.3,0-1.9,0l-5.6-.3c-.5,0-1,0-1.4,0-6.2,0-12.4,2.1-17.3,5.8l-4.5,3.4c-4.1,3.1-8.8,5.4-13.8,6.6l-5.5,1.4c-6.5,1.7-12.3,5.6-16.2,11l-3.3,4.6c-3,4.2-6.8,7.7-11.2,10.4l-4.8,2.9c-5.7,3.5-10.1,8.9-12.2,15.3l-1.8,5.4c-1.6,4.9-4.2,9.4-7.6,13.2l-3.7,4.2c-4.5,5-7,11.5-7.2,18.3v5.6c-.3,5.2-1.4,10.2-3.5,14.9l-2.3,5.1c-2.8,6.1-3.3,13.1-1.5,19.6l1.5,5.4c1.4,5,1.8,10.1,1.1,15.2l-.7,5.6c-.8,6.7.7,13.5,4.4,19.1l3.1,4.7c2.8,4.4,4.7,9.1,5.6,14.2l1,5.6c1.2,6.6,4.7,12.7,9.8,17l4.3,3.6c4,3.3,7.2,7.3,9.5,11.9l2.6,5c3.1,6,8.2,10.7,14.4,13.3l5.2,2.2c4.8,2,9,4.9,12.6,8.6l3.9,4c4.7,4.8,11,7.8,17.7,8.5l5.6.6c5.1.5,10.1,2,14.6,4.5l5,2.7c4.2,2.3,8.9,3.5,13.7,3.5s3.8-.2,5.7-.6l5.5-1.1c2.5-.5,5.1-.8,7.6-.8s5.1.3,7.6.8l5.5,1.1c1.9.4,3.8.6,5.7.6,4.8,0,9.5-1.2,13.7-3.5l5-2.7c4.6-2.5,9.5-4,14.6-4.5l5.6-.6c6.7-.7,13-3.7,17.7-8.5l3.9-4c3.6-3.7,7.9-6.6,12.6-8.6l5.2-2.2c6.2-2.6,11.3-7.3,14.4-13.3l2.6-5c2.4-4.6,5.6-8.6,9.5-11.9l4.3-3.6c5.2-4.3,8.6-10.4,9.8-17l1-5.6c.9-5.1,2.8-9.9,5.6-14.2l3.1-4.7c3.7-5.6,5.2-12.4,4.4-19.1l-.7-5.6c-.7-5.1-.3-10.2,1.1-15.2l1.5-5.4c1.8-6.5,1.3-13.4-1.5-19.5l-2.3-5.2c-2.1-4.7-3.3-9.7-3.4-14.9v-5.6c-.3-6.7-2.8-13.2-7.3-18.2l-3.7-4.2c-3.4-3.9-6-8.3-7.6-13.2l-1.8-5.4c-2.1-6.4-6.5-11.8-12.2-15.3l-4.8-2.9c-4.4-2.7-8.2-6.2-11.2-10.4l-3.3-4.6c-3.9-5.5-9.7-9.4-16.2-11l-5.5-1.4c-5-1.3-9.6-3.5-13.8-6.6l-4.5-3.4c-4.9-3.7-11.1-5.8-17.3-5.8s-1,0-1.4,0l-5.6.3c-.6,0-1.3,0-1.9,0-4.5,0-8.9-.8-13.2-2.3l-5.3-1.9c-3.2-1.2-6.5-1.7-9.8-1.7h0ZM154.8,290.3c-75,0-136-61-136-136S79.8,18.3,154.8,18.3s136,61,136,136-61,136-136,136h0Z"/>
    </g>
    <g>
      <path d="M182.8,113.6c2.1,1.5,3.9,3.1,5.7,5.1s.9,1.3,1.3,1.7,3.9,1.6,4.8,2.1c6,2.9,11.9,7.2,12.4,14.6.2,2.6.3,9.2-.5,11.5-1,3-4,5.4-6.4,7.2s-.6.3-.8.5-.5,1.8-.7,2.2c-2.4,6.4-7,8.9-13.6,9.6-.6,0,0,.2,0,.6,1.1,2.2,2.1,5,2.4,7.5s.1,2,0,3c.5,0,1.1,0,1.6,0,3.2-.2,6.2-.6,9.4-.6s5.7,0,7.9.3,1.7.7,1.6,1.8-.7,1-1.2,1.1-2.6-.3-2.7-.2c0,1.9.2,3.7.3,5.6.9.3,2.2,0,2.9.5s.9,1.3.4,2-1.5.6-2.4.6c-2.4,0-4.8-.4-7.2-.3-5.9.1-11.9.9-17.7,1.9-2.9,3-6,5.9-9.1,8.5-5,4.2-10.2,7.7-16.3,10.4-5.5,2.4-8.1,1.9-11.5-3s-1-1.8-1.6-2.5c-.7,0-1.3.4-1.9.6-6.3,1.7-19,3.8-23.2-2.9-1.9-3-1.2-8.3-1.2-11.9,0-4.4.9-6.5,3.4-10,.8-1.1,1.6-2,2.3-3-1.4-2.5-1.4-5.4-1.6-8.2,0-.1-1.7-1.5-2-1.8-2.5-2.7-5.4-8.7-5.7-12.3-.3-4.4,1.1-7.4,2.7-11.2s-.2-1.6-.4-2.5c-2.3-9.3,1.7-17.9,7.8-24.7s1.2-.9,1-1.1c-.5,0-.8-.3-1.2-.4-3.8-1.6-7.9-3.3-11.1-5.8s-.6-.3-.7-.5c-.4-.7-.2-2,.7-2.3s1.6.5,2.6.9l1-4.3h0c-.4-.3-.9-.6-1.2-.8-.6-.4-2.8-1.7-3.1-2.2-.4-1,.2-2.1,1.3-2.1s2,1.1,2.7,1.5c6.4,3.7,13.4,6.2,20.4,8.3.9.1,1-.2,1.7-.5,14.6-5.1,33.9-3.4,46.6,5.7ZM117.1,104.9c-.3.1-.3.9-.3,1.2-.3,1.2-.6,2.3-.9,3.5.3.2.6.4.9.6.9.5,2.1,1.1,3,1.5s1.8.8,2,.7l1.2-4.9c-1.3-.5-2.6-1-3.9-1.6-.4-.2-1.6-1-2-.8ZM178.8,114.3c-10.9-6.6-25.8-8.4-38-5-.2,0-.7.2-.7.3s.2.2.2.2c1.3.5,2.6.6,3.9.8,11.9,2.5,23.9,3.8,35.7,6.8s2.6.7,3.8,1,.5.2.7.3c.4,0-.3-.6-.4-.7-1.4-1.3-3.6-2.9-5.2-3.8ZM132.8,110.7l-7.3-2.2-1.2,5,7.2,2.6c.1,0,.2-.3.2-.4.2-.8.3-1.7.5-2.6s.6-1.5.5-2.4ZM142.3,113.1l-6.7-1.6c-.4.3-.3.9-.4,1.3-.3,1-.8,2.5-.9,3.4-.1.9.3.6.9.8,1.2.4,2.5.6,3.7,1s1.5.6,2.3.5l1.1-5.4ZM151.3,120.5l.9-5.5-7.2-1.3-1,5.6,7.3,1.3ZM162.4,116.6l-7.4-1.1c-.4.2-.3,1.2-.3,1.6,0,.5-.8,3.7-.7,3.9l7.4,1.3,1.1-5.6ZM171.7,124.1l.8-5.5c-.9-.1-7-1.6-7.3-1.4s-.3,1.2-.4,1.6c-.3,1.3-.7,2.6-.8,3.9l7.7,1.4ZM161.4,135.9c-2.8-3.1-4.8-5.7-3.3-10.2s.7-1,.4-1.2c-4.9-.8-9.7-1.6-14.5-2.6s-9.4-2.1-13.9-3.5c-1-.2-2.7-1.1-3.6-1.2s-.3,0-.4,0c-5,5-9.4,11.6-9.5,18.9,0,1.3.2,2.6.3,3.9.2,0,.3,0,.4-.2.4-.7.8-1.6,1.2-2.3s.6-.9,1.4-.8,1.4.7,1.3,1.4-.4,1.1-.6,1.4c-2.4,5-6.2,10.4-5.5,16.3s2.8,7.7,4.8,10c.6.7,2.5,2.2,2.7,2.8s.1.9.2,1.1c.1,1.7,0,3.4.5,5.1,1,4.2,5.6,3.4,8.3,1.4.7-.5,1.3-1.3,1.9-1.9,1-.4,2.3.1,2.3,1.3s-1.3,1.5-1.5,2.1c-.2.9.3,2.3,0,3.3.5.1.8-.4,1.1-.5,1.2-.5,2.3-.7,3.6-.3,1-1.6,2.9-3.4,4.9-2.5.2-.8.7-1.5,1.3-2,1.1-.8,3.4-1.1,4.7-.6s.7.6.8.5c.8-2.2,3.3-3.1,5.5-2.5.6-1.7,1.9-2.9,3.7-2.9,0-.5-.4-.9-.6-1.4-1.3-3.9-3.1-8.5,1.3-11.1,3.5-2.1,7.9-2.4,11.6-4.1,2.7-1.2,4.7-3,7.1-4.6,2.7-1.9,4.3-1.5,7.1-2.5.7-.3,1.1-1.1,2.1-.7s1.1,1.8.2,2.5-2.7,1-4,1.5c-.1.5-.4,1-.5,1.5-.5,2.1-.8,4.8-.6,7s1.1,2.3.5,3.3-1.4.8-2,.4-.4-.4-.4-.5c-.4-.8-.8-2.6-.9-3.5-.2-2.3.2-4.7.6-6.9-.2,0-.2,0-.4.1-.5.3-1,.8-1.5,1.2-1.4,1-2.9,2-4.3,2.9s-3.4,1.7-5.2,2.1c-.4.2,0,.9.1,1.2,1.3,3.1,2.8,6.2,4.1,9.3,2,5,3.5,8-.3,12.6-.2.2-1.3,1.2-1.1,1.5,1.8-.5,3.7-.9,5.6-1.4l5.6-1c.8-1.6.4-3.8,0-5.5-.8-2.9-2.5-5.2-3.8-7.8-1.1-2.1-2.1-4.4-3-6.6-.1-.3-.3-.6-.4-.8-.3-1.1-.1-2.1,1.2-2.1.3,0,1.1.3,1.2.6s0,.3,0,.4c.4.9.9,1.7,1.3,2.6.7,1.5,1.4,3.1,2.1,4.6.2.3,1.1.3,1.4.3,5.9-.1,10.3-3.1,12-8.8,1.3-4.5,1.5-15.3,0-19.7-.8-2.2-1.7-2.6-3.7-3.5-7.7-3.5-16.9-5.4-25.1-6.9-1.9-.4-3.7-.8-5.6-1-.3,0-.7.6-.8.9-2.6,5.2,4,9.1,6.6,12.4s1.5,2.8,2.9,3.7c2.3,1.6,5.7,1.1,8.1,0s1-.8,1.5-.8c1.2-.1,2,1.3,1.2,2.3-.4.5-2,1.2-2.6,1.5-4,1.6-9.2,1.1-11.8-2.5s-.5-.9-.8-1.3c-1.4-1.9-3.1-3.6-4.7-5.3ZM181.4,126.4l.8-5.4-3.5-1c-.5,0-3.3-.9-3.5-.7l-.7,5.5,7,1.6ZM191.5,129.6l.6-5.3c-.8-.3-1.5-.7-2.3-1s-.4,0-.5-.1c-.6-.2-4.1-1.7-4.5-1.4l-.7,5.4,7.4,2.5ZM197.8,127.5c-.3-.2-2.8-1.8-3-1.7-.3,0-.5,4.4-.8,4.9l5.6,3.1c0-1.5.4-2.9.5-4.4-.7-.7-1.5-1.3-2.4-1.9ZM204.1,137.9v-2.3c0-.2-.9-2.6-1-2.9s-.4-.6-.6-.5c0,.6-.2,1.3-.3,1.9,0,.4-.1,1.2-.1,1.6,0,.6,1.1,1.3,1.4,1.7s.1.6.6.5ZM200.7,138.3c-.1-.1-1.2-1.3-1.4-1.1l.4,2.3.3,4.6c.2.2,1.2-.8,1.4-1,.3-.3,1.3-1.5,1.4-1.8,0-.5-1.3-2.3-1.7-2.7s-.2-.2-.3-.2ZM204.1,147c.1-.6,0-1.9,0-2.5s-.2-.2-.3-.2-1.1,1.2-1.3,1.3-.4,0-.4.4c.2.5.5,2.8.8,3s.2,0,.2-.1c.2-.3.9-1.6.9-1.9ZM199.7,152.5c0,0,.8-.6.9-.6.5-.6-.4-2.5-.5-3.3-.2,0-.2.2-.2.4-.2,1.2-.2,2.4-.2,3.6ZM161.4,177.1c0,0,.2-1.2.2-1.3,0-1.1-.7-3.9-2.3-2.5s-.5,2.8-.2,3.6.8.8,1.5.6.6-.3.7-.3ZM155.6,179.4c.7-.5,1.1-1.7.7-2.5-.7-2.1-3.3-1-3.1,1s.4,1.7.6,1.8c.4.2,1.4,0,1.8-.2ZM147.9,177.7c-1.2.1-1.5.6-1.3,1.7s1,3.4,2.6,2.9c1.3-.4,1.1-3.6,0-4.4-.4-.3-.7-.2-1.1-.2ZM165.8,179.6c-.2-.3-.4-.8-.9-.8s-1.3.5-1.5.7c-.4.4-.6,1.3-.4,1.8s.3.6.4.6c0,0,.9.5,1,.5.2,0,1.3.1,1.4,0s.4-.7.4-.8c.4-1,.3-1.3-.3-2.1ZM125.1,183.5c.9-.6,1.8-1.1,2.7-1.6.1-.2-.5-1.2-.7-1.3-.3,0-1.2,0-1.6-.2s-1.3-.5-1.9-.6c-.4,0-.4.4-.5.6-.2.2-.6.6-.8.8s-.5.6-.4,1,1.3,1.9,1.4,2.1c.6.7,1.3-.4,1.8-.8ZM143.6,181c0-.1,0-.3-.2-.4-.9-.5-1.9.8-1.9,1.6s.4,1.3.7,1.7.4.4.7.6.6.7,1,.4.2-2.8,0-3.4-.2-.3-.3-.6ZM193.5,187.2h8c0-.1-.4-5.8-.4-5.8,0-.1-.2,0-.3-.1-1.4-.2-3.1,0-4.5.1s-2.4,0-3.7.2l.8,5.7ZM160.9,185.4c.5-.4.7-1.7.7-2.3-.2-1.3-1.8-2.1-2.9-1.5s-1,1-1,1.4c0,.7,1.1,2.1,1.7,2.4s1.3.4,1.6,0ZM190,181.8c-2.3,0-4.5.5-6.7.9l1.1,5.5,6.5-.7-.8-5.6ZM131.8,182.8c-.5,0-.9.4-1.3.6-3.7,1.9-6.4,3.9-8.9,7.4-.6.9-1.3,1.7-1.8,2.7h0c.4.5.9.9,1.3,1.1,3.6,2.1,9.2,1.7,13.2,1s3.6-.7,3.7-.9-.3-.7-.5-.9c-.7-1.4-.6-2.2,0-3.6,0-.3-.9-.1-1.2-.2-1.9-.2-3.6-1.9-4.1-3.7s-.1-1.2-.3-1.7-.5-1.1-.4-1.7ZM138.6,183.5c0,0-.7-.5-.8-.5-1-.2-2.6.9-2.8,1.9s1.1,2.5,2.3,2.6,1.5-.3,1.7-.5,0-1.7,0-2-.4-1.3-.4-1.4ZM181.7,188.7c.2-.1-.3-1.8-.4-2.2-.2-1-.3-2-.5-2.9s0-.4-.3-.5c-2,.5-4.2.8-6.2,1.3s-1.3.3-1.4.5l1.6,5.1,7-1.4ZM155.6,185.4c-.4-.4-1.3-1.1-1.8-1.2-.9,0-1.6,1.5-1.5,2.2s.4,1.4.9,1.9,0,.3.1.3c.4.3,2-.6,2.5-.8s.9-.1.9-.7-.8-1.6-1.1-1.8ZM118.4,188.8c0,.5,0,1,0,1.5l3.2-3.8c0-.4-.6-1-.8-1.3s-.4-1-.8-.8-1.1,2.2-1.2,2.5-.4,1.3-.4,1.7ZM164.4,193l7.5-2.2c.1-.2-.6-2.3-.8-2.7s-.5-2.3-.8-2.4-4.8,1.5-5.4,1.7-1.2.3-1.6.6l1.1,5.1ZM150.3,189.2c-.3-.5-.9-1.1-1.5-1.4s-2-.2-2.4.2-.2,1.1,0,1.4.7,1.4.9,1.6.3.2.4.2c1-.2,2-.8,2.9-1.2.2-.4-.2-.6-.3-.9ZM160.7,188.9c-.1,0-.3,0-.4,0-.7.2-1.8.7-2.5,1s-3.6,1.5-3.7,1.7c-.2.4.4,2.2.6,2.7l.5,2.3,6.8-2.6v-.8s-1.2-4.4-1.2-4.4ZM143.9,193c.8-1-1.2-2.3-2.1-2.4s-1.8.4-1.9,1.3,1.3,1.6,1.9,1.7,2-.5,2.1-.6ZM151.5,192.9l-7,2.7.9,5.3,7.2-3-1.2-5ZM175,193c-5.5,1.2-11,3-16.3,5.1-4.1,1.6-8,3.6-12.1,5.2s-2,.4-1.9.9c1.8,2.7,3,5.7,6.9,4.7s2.3-.9,3.3-1.3c7-3.4,13.2-8.1,18.9-13.3l1.2-1.4ZM119.2,196.3c-.2,0-.3-.3-.5-.3-.6,2.3-.4,4.6,1.5,6.2s1.9,1.6,2.1.8.2-2.1.3-3.1c0-.4.4-1.8.2-2-1-.3-2-.7-3-1.2s-.5-.4-.7-.5ZM142.7,201.9c.2-.2-.2-1.6-.3-2-.1-.8-.3-1.7-.4-2.5s0-.8-.2-.9l-7.2,1.7.4,5.6c1,.1,1.8-.4,2.8-.5l4.9-1.5ZM131.8,198.6h-6.4s-.6,5.6-.6,5.6c2.5.5,5,.3,7.5,0l-.5-5.7Z"/>
      <path d="M156,135.3c5.5,4.1,6.2,11,2,16.4s-11,3.4-16.1-.7c-5.1-4.1-10.2-11.2-2.6-16,5.4-3.4,11.6-3.6,16.8.3Z"/>
      <path d="M127,146c.4.5.3,1.3.3,1.9s-.3,1.4-.3,2c-.2,2.8.7,3.6,1.4,6.1s1.3,7.1-1.2,9.3c-3,2.6-7.7-1.2-9.3-3.8-2.7-4.3-2.7-14.9,3.5-16.3,1.5-.3,4.7-.4,5.7.9Z"/>
      <path d="M133.3,151.2c1.4,1,3,2.6,4.2,3.8,1.9,2,5.8,6.7,6,9.4.1,1.6-.8,3.9-2.1,4.9s-2.1,1-3.6.3-.2-.3-.3-.3c-1.2-.3-.8.5-1,1.3-.5,1.4-1.7,1.3-2.7.6-1.9-1.3-2.3-5.5-2.5-7.6-.2-1.7,0-3.8-.3-5.4s-3.1-4.8-2.7-6.9,3.3-1.2,4.8-.2Z"/>
    </g>
    <path d="M154.8,291c-75.4,0-136.7-61.3-136.7-136.7S79.4,17.6,154.8,17.6s136.7,61.3,136.7,136.7-61.3,136.7-136.7,136.7ZM154.8,20c-74.1,0-134.3,60.2-134.3,134.3s60.2,134.3,134.3,134.3,134.3-60.2,134.3-134.3S228.9,20,154.8,20Z"/>
    <path d="M154.8,251.4c-53.5,0-97.1-43.6-97.1-97.1s43.6-97.1,97.1-97.1,97.1,43.6,97.1,97.1-43.6,97.1-97.1,97.1ZM154.8,59.6c-52.2,0-94.7,42.5-94.7,94.7s42.5,94.7,94.7,94.7,94.7-42.5,94.7-94.7-42.5-94.7-94.7-94.7Z"/>
    <g>
      <path d="M62.5,227.7c0-1,.5-1.8,1.3-2.4.7-.6,1.6-.9,2.6-.8,1,0,1.8.5,2.4,1.3.6.7.9,1.6.8,2.6,0,1-.5,1.8-1.3,2.4-.7.6-1.6.9-2.6.8s-1.8-.5-2.4-1.3-.9-1.6-.8-2.6Z"/>
      <path d="M102.9,247.3c-.4.1-.8.4-1,.8l-9.1,12.9c-.3.4-.4.8-.4,1.2,0,.4.2.9.4,1.3l-.3.4-6.4-4.5.3-.4c.5.1.9.1,1.4,0s.8-.4,1-.8l6.4-9-10.7,5.5c0,0-.1,0-.1-.1l1.6-12-6.4,9c-.3.4-.4.8-.4,1.2,0,.4.2.9.4,1.3l-.3.4-6.4-4.5.3-.4c.5.1.9.1,1.4,0s.8-.4,1-.8l9.1-12.9c.3-.4.4-.8.4-1.2,0-.4-.2-.9-.4-1.3l.3-.4,7.6,5.4-.3.4c-.3,0-.6,0-.7.3,0,.1-.1.3-.2.5,0,.2,0,.4-.1.7l-1,6.3,5.6-3.1c.2-.1.4-.2.6-.3s.3-.2.4-.3c.2-.2.2-.5,0-.8l.3-.4,7.6,5.4-.3.4c-.5-.1-.9-.1-1.4,0Z"/>
      <path d="M116.4,268l-2.3,5.3-16.6-7.1.2-.5c.5,0,.9,0,1.3-.3.4-.2.7-.5.8-1l6.2-14.5c.2-.4.2-.8.1-1.3-.1-.4-.3-.8-.7-1.2l.2-.5,16.1,6.9-2.3,5.3-.5-.2c0-.5-.1-.9-.4-1.2s-.6-.6-1-.8l-7.9-3.4-1.5,3.5,3.8,1.6c.4.2.8.2,1.3.1.4-.1.8-.3,1.2-.7l.5.2-2.9,6.7-.5-.2c0-.5,0-.9-.3-1.3-.2-.4-.5-.7-1-.8l-3.8-1.6-1.5,3.5,8.3,3.6c.4.2.8.2,1.3.2.4,0,.8-.3,1.1-.6l.5.2Z"/>
      <path d="M139.2,259.3c1.3,1.2,2.2,2.6,2.7,4.3.5,1.7.5,3.6.1,5.7-.4,2-1.2,3.7-2.4,5-1.2,1.3-2.6,2.3-4.3,2.8s-3.4.6-5.2.2l-10.9-2.3v-.5c.6,0,1-.3,1.3-.6.3-.3.5-.7.6-1.1l3.2-15.4c0-.4,0-.9-.1-1.3-.2-.4-.5-.7-.9-1v-.5c.1,0,11,2.3,11,2.3,1.9.4,3.5,1.2,4.8,2.3ZM134.9,272.2c1.1-.9,1.8-2.2,2.1-3.9.4-2,.3-3.6-.4-4.7-.6-1.2-1.7-1.9-3.3-2.2l-4.7-1-2.4,11.7,4.7,1c1.6.3,2.9,0,3.9-.8Z"/>
      <path d="M144,278.9c.5-.2.8-.4,1.1-.7.3-.3.4-.7.5-1.2l.9-15.8c0-.5,0-.9-.3-1.2s-.6-.7-1-.9v-.5s7.9.4,7.9.4v.5c-.5.2-.9.4-1.2.7-.3.3-.4.7-.5,1.2l-.9,15.8c0,.5,0,.9.3,1.2.2.4.6.7,1,.9v.5s-7.9-.4-7.9-.4v-.5Z"/>
      <path d="M179.5,276.5c.4.2.8.5,1.3.7v.5c0,0-8,.9-8,.9v-.5c.7-.3,1-.8,1-1.3,0-.2,0-.4-.2-.7l-.4-.8-9.9,1.1-.3.9c0,.3,0,.5,0,.7,0,.5.5.8,1.3,1v.5c0,0-8,.9-8,.9v-.5c.4-.4.8-.7,1.1-1,.3-.3.5-.7.6-1l5.1-16.8c0-.3,0-.5,0-.7,0-.5-.5-.8-1.3-1v-.5c0,0,6.9-.8,6.9-.8,0,0,.1,0,.2,0l9.8,17.4c.2.4.5.7.8.9ZM170.8,271.3l-3.9-7-2.3,7.6,6.2-.7Z"/>
      <path d="M202.7,269.2c-1.9-.2-3.6-.8-5.2-1.9-1.6-1.1-2.8-2.5-3.6-4.2s-1.1-3.6-1-5.5c.2-1.9.8-3.6,1.9-5.2,1.1-1.6,2.5-2.8,4.2-3.6,1.4-.7,2.9-1,4.4-1,1.5,0,3,.3,4.4.9.4.2.8.3,1.2.4.4,0,.7,0,1.1-.2l.4.3-.6,1.1-1.8,3.4c0,0-.1,0-.2,0-2.3-1.5-4.6-1.8-6.9-.7-1,.5-1.8,1.1-2.4,2-.5.8-.8,1.8-.9,2.8,0,1,.2,2.1.7,3.1.5,1.1,1.2,1.9,2,2.5s1.7,1,2.7,1.1c1,.1,2,0,3-.5,2.5-1.2,3.8-3,4.1-5.4,0-.1,0-.2.2-.1l5.1,1.1v.5c-.4.1-.7.3-1,.6-.3.3-.4.7-.5,1.1-.5,1.3-1.2,2.6-2.3,3.7-1,1.1-2.2,2-3.6,2.7-1.7.8-3.6,1.1-5.5,1Z"/>
      <path d="M224.6,257.4c-1.9.2-3.7,0-5.5-.7-1.8-.7-3.2-1.9-4.4-3.4-1.2-1.6-1.9-3.3-2.1-5.2-.2-1.9,0-3.7.8-5.5.8-1.8,2-3.3,3.6-4.5,1.6-1.2,3.4-2,5.3-2.2,1.9-.2,3.8,0,5.5.8,1.8.7,3.2,1.9,4.4,3.4,1.2,1.6,1.8,3.3,2,5.2.2,1.9,0,3.7-.9,5.5s-2,3.3-3.6,4.5c-1.6,1.2-3.4,2-5.3,2.2ZM229.2,249c.4-1,.5-2,.4-3-.2-1-.6-2-1.2-2.9-.7-.9-1.5-1.6-2.4-2-1-.4-2-.6-3-.5-1.1,0-2.1.5-3,1.2-.9.7-1.6,1.5-2,2.5-.4,1-.5,2-.3,3,.2,1,.6,2,1.2,2.9s1.5,1.6,2.4,2c.9.4,1.9.6,3,.5,1,0,2-.5,3-1.2.9-.7,1.6-1.5,2-2.5Z"/>
      <path d="M243.9,231.6c-1,0-1.8-.2-2.6-.8-.7-.6-1.2-1.4-1.3-2.4,0-1,.2-1.8.8-2.6.6-.7,1.4-1.2,2.4-1.3,1,0,1.8.2,2.6.8.7.6,1.2,1.4,1.3,2.4,0,1-.2,1.8-.8,2.6-.6.7-1.4,1.2-2.4,1.3Z"/>
    </g>
    <g>
      <path d="M75.6,74.3c-1,0-1.8-.4-2.5-1.1-.7-.7-1-1.5-1-2.5s.4-1.8,1.1-2.5c.7-.7,1.5-1,2.5-1s1.8.4,2.5,1.1c.7.7,1,1.5,1,2.5s-.4,1.8-1.1,2.5c-.7.7-1.5,1-2.5,1Z"/>
      <path d="M106.3,54.4l2.9,4.9c0,0,0,.2,0,.2l-14.2,8.3-.3-.4c.4-.4.6-.9.6-1.3,0-.5,0-.9-.2-1.3l-8-13.6c-.2-.4-.6-.7-1-.8-.4-.2-.9-.2-1.5,0l-.3-.4,7.1-4.2.3.4c-.4.4-.6.9-.6,1.3s0,.9.2,1.3l7,12,6.4-3.8c.4-.2.7-.5.9-.9s.3-.8.2-1.3l.4-.3Z"/>
      <path d="M131.7,49.9c.4.1.9.3,1.5.4l.2.5-7.7,2.6-.2-.5c.7-.5.9-1,.7-1.4,0-.2-.2-.4-.4-.6l-.6-.7-9.4,3.1v.9c0,.3,0,.5,0,.7.2.5.6.7,1.5.7l.2.5-7.7,2.6-.2-.5c.4-.4.7-.8.9-1.2.2-.4.4-.7.4-1.2l1.4-17.5c0-.3,0-.5,0-.7-.2-.5-.6-.7-1.5-.7l-.2-.5,6.6-2.2c0,0,.1,0,.2,0l13.2,15c.3.3.6.5,1,.7ZM122.1,46.7l-5.3-6-.6,8,5.9-2Z"/>
      <path d="M140.5,47.7c0,.5.2.8.5,1.2s.7.6,1.2.7v.5s-7.8.7-7.8.7v-.5c.4-.2.7-.5,1-.9.2-.4.3-.8.3-1.3l-1.4-15.7c0-.5-.2-.8-.5-1.2-.3-.3-.7-.6-1.2-.7v-.5s5.4-.5,5.4-.5c0,0,.2,0,.2,0l10.8,9.4-.7-7.9c0-.5-.2-.8-.5-1.2s-.7-.6-1.2-.7v-.5s7.8-.7,7.8-.7v.5c-.4.2-.7.5-1,.9-.2.4-.3.8-.3,1.3l1.7,18.5h-1.5c0,.1-13.7-11.4-13.7-11.4l.9,9.8Z"/>
      <path d="M179.3,39.9l-1,7.7c-.9,1.1-2.3,2-4.2,2.5-1.9.5-3.9.6-6.1.3-2-.3-3.8-1-5.5-2.1s-2.8-2.6-3.6-4.4c-.8-1.8-1.1-3.7-.8-5.7.2-1.9,1-3.6,2.2-5.1,1.2-1.5,2.7-2.5,4.6-3.3,1.8-.7,3.8-.9,5.8-.7,3.2.4,5.8,1.8,7.7,4.2.5.7,1,1.1,1.6,1.1.2,0,.3,0,.3,0l.3.4-1,.7-3.6,1.9c0,0-.2,0-.2,0-.7-1.1-1.4-2-2.3-2.6-.8-.7-2-1.1-3.4-1.3-1.2-.1-2.3,0-3.3.3-1,.4-1.8,1-2.5,1.8s-1.1,1.9-1.2,3.1c-.2,1.3,0,2.4.4,3.5.4,1,1.1,1.9,2,2.5.9.6,1.9,1,3.1,1.2,2.1.3,3.8,0,5-.5l.3-2.5-2.5-.3c-.5,0-.9,0-1.2.2s-.7.4-.9.7h-.5c0,0,.6-4.9.6-4.9,0,0,0-.1.2-.1l9.6,1.2c0,0,.1,0,.1.2Z"/>
      <path d="M198.8,52.2l-1.8,5.5-17.1-5.7.2-.5c.5,0,.9-.2,1.3-.4.4-.3.6-.6.8-1l5-15c.1-.4.1-.9,0-1.3-.1-.4-.4-.8-.8-1.1l.2-.5,16.6,5.6-1.8,5.5-.5-.2c0-.5-.2-.8-.5-1.2s-.6-.6-1-.7l-8.2-2.7-1.2,3.6,4,1.3c.4.1.9.1,1.3,0,.4-.1.8-.4,1.1-.8l.5.2-2.3,6.9-.5-.2c0-.5-.2-.9-.4-1.3s-.6-.6-1-.8l-4-1.3-1.2,3.6,8.6,2.9c.4.1.9.2,1.3,0,.4-.1.8-.3,1.1-.7l.5.2Z"/>
      <path d="M214.3,65.6c.2.6.5,1.1.7,1.5l-.2.4-5.4-3.1c0,0-.1-.1,0-.2v-8.7c.1,0-1.5-.9-1.5-.9l-2.6,4.5c-.2.4-.3.8-.3,1.3s.2.9.5,1.2l-.2.4-6.9-3.9.2-.4c.5,0,.9,0,1.3-.2s.7-.5,1-.9l7.8-13.7c.2-.4.3-.8.3-1.3,0-.4-.2-.9-.5-1.2l.2-.4,9.3,5.3c1.5.8,2.5,1.8,3.1,2.9s.8,2.2.7,3.3-.5,2.1-1,3.1c-.8,1.3-1.7,2.3-2.9,2.8-1.2.5-2.4.6-3.8.3v6.2c0,.4.1,1,.4,1.6ZM209.8,51.1l3.5,2c.7.4,1.3.5,1.9.4s1-.5,1.4-1.2c.4-.6.4-1.2.3-1.8s-.6-1-1.3-1.4l-3.5-2-2.2,4Z"/>
      <path d="M230.3,70.8c0-1,.3-1.8,1-2.5s1.5-1.1,2.5-1.1c1,0,1.8.3,2.5,1s1.1,1.5,1.1,2.5c0,1-.3,1.8-1,2.5-.7.7-1.5,1.1-2.5,1.1-1,0-1.8-.3-2.5-1-.7-.7-1.1-1.5-1.1-2.5Z"/>
    </g>
    <g class="st1">
      <g>
        <path d="M58.9,154.3c0,7.1.8,14,2.2,20.7H20.9c-1-6.7-1.6-13.6-1.6-20.7s.5-13.9,1.6-20.7h40.3c-1.5,6.7-2.2,13.6-2.2,20.7Z"/>
        <path d="M290.3,154.3c0,7-.5,13.9-1.6,20.7h-40.3c1.5-6.7,2.2-13.6,2.2-20.7s-.8-14-2.2-20.7h40.3c1,6.7,1.6,13.6,1.6,20.7Z"/>
      </g>
    </g>
    <polygon points="76.6 143.4 81.5 150.2 89.4 147.6 84.6 154.3 89.4 161.1 81.5 158.5 76.6 165.2 76.6 156.9 68.7 154.3 76.6 151.8 76.6 143.4"/>
    <polygon points="232.4 143.4 227.6 150.2 219.6 147.6 224.5 154.3 219.6 161.1 227.6 158.5 232.4 165.2 232.4 156.9 240.4 154.3 232.4 151.8 232.4 143.4"/>
    <g>
      <path d="M76.7,180.7c-1.7.5-3.1-.5-3.7-2.5l-.4-1.5-2.1.6-.5-1.8,7.6-2.2.9,3.3c.6,2-.1,3.6-1.8,4.1ZM76.2,178.9c.8-.2,1.2-.9.9-2l-.4-1.4-2.6.8.4,1.4c.3,1.1,1,1.5,1.8,1.2Z"/>
      <path d="M82.6,187.6l-7.3,3-.7-1.7,3-1.2-1.4-3.3-3,1.2-.7-1.7,7.3-3,.7,1.7-2.9,1.2,1.4,3.3,2.9-1.2.7,1.7Z"/>
      <path d="M79.5,190.5c2.1-1.1,4.5-.4,5.6,1.8,1.2,2.2.6,4.6-1.5,5.7s-4.5.3-5.6-1.8c-1.2-2.2-.5-4.6,1.5-5.7ZM82.8,196.4c1.3-.7,1.7-2.1,1-3.4-.7-1.2-2.1-1.7-3.4-1-1.3.7-1.7,2.1-1,3.4.7,1.2,2.1,1.7,3.4,1Z"/>
      <path d="M87.5,199.2l-1.4-2.1,1.2-.8,3.9,5.7-1.2.8-1.4-2.1-5.3,3.6-1-1.5,5.3-3.6Z"/>
      <path d="M88.2,204.7c1.8-1.5,4.3-1.2,5.9.7,1.6,1.9,1.5,4.4-.3,5.9-1.8,1.5-4.3,1.2-5.9-.7-1.6-1.9-1.5-4.4.3-5.9ZM92.6,209.9c1.1-1,1.2-2.4.3-3.5s-2.4-1.2-3.5-.3c-1.1,1-1.2,2.4-.3,3.5.9,1.1,2.4,1.2,3.5.3Z"/>
      <path d="M92.2,214.1l1.4-.6c.1.8.6,1.7,1.3,2.4.8.8,1.3.8,1.7.5,1-1.1-3-3.5-.9-5.6.9-1,2.5-1,4.1.6.7.7,1.3,1.6,1.5,2.4l-1.4.6c-.2-.8-.6-1.5-1.1-2-.8-.8-1.4-.8-1.7-.4-1,1,3,3.5,1,5.6-.9.9-2.5,1-4.1-.6-.9-.9-1.5-2-1.7-2.9Z"/>
      <path d="M102.4,219.2c.5-.6,1.4-.7,2-.3.6.5.7,1.3.2,2-.5.6-1.4.7-2,.3-.6-.5-.7-1.3-.2-2Z"/>
      <path d="M117.1,224.4l-7,4.9-1.5-.9,1.2-8.5,1.7,1-.9,6.1,5-3.5,1.5.9Z"/>
      <path d="M117.7,224.6l1.6.8-3.6,7-1.6-.8,3.6-7Z"/>
      <path d="M120.8,226.3l3.3,1.4c2.4,1,3.4,3.1,2.5,5.3-.9,2.2-3.2,3-5.5,2l-3.3-1.4,3-7.3ZM121.6,233.5c1.4.6,2.8.1,3.3-1.3.6-1.4,0-2.7-1.4-3.3l-1.5-.6-1.9,4.5,1.5.6Z"/>
      <path d="M133.1,237.5l-.4,1.4-5.8-1.8,2.3-7.5,5.7,1.7-.4,1.4-4-1.2-.5,1.6,3.5,1.1-.4,1.4-3.5-1.1-.5,1.7,4.1,1.2Z"/>
      <path d="M134.9,235.4c.4-2.3,2.6-3.7,5-3.2,2.4.5,3.9,2.5,3.5,4.8-.4,2.3-2.6,3.7-5,3.2-2.4-.5-3.9-2.5-3.5-4.8ZM141.5,236.7c.3-1.5-.6-2.7-1.9-2.9-1.4-.3-2.6.5-2.9,2-.3,1.5.6,2.7,1.9,2.9,1.4.3,2.6-.5,2.9-2Z"/>
      <path d="M143.9,240.3l.7-1.3c.6.5,1.6,1,2.5,1,1.1,0,1.5-.2,1.6-.7.1-1.5-4.5-.9-4.3-3.8.1-1.3,1.3-2.4,3.5-2.2,1,0,2,.4,2.7.9l-.7,1.3c-.7-.5-1.4-.7-2.1-.8-1.1,0-1.5.3-1.6.8-.1,1.4,4.5.8,4.3,3.7-.1,1.3-1.3,2.3-3.5,2.1-1.2-.1-2.5-.6-3.1-1.2Z"/>
      <path d="M155,237.7c0-.8.6-1.4,1.4-1.4.8,0,1.4.6,1.4,1.4,0,.8-.6,1.4-1.4,1.5-.8,0-1.4-.6-1.4-1.4Z"/>
      <path d="M168,236.6l1.7-.2.4,3.2c-.8.8-1.9,1.3-3,1.4-2.5.3-4.5-1.1-4.8-3.5-.3-2.4,1.3-4.3,3.7-4.6,1.4-.2,2.6.1,3.5.9l-1,1.2c-.7-.5-1.3-.7-2.1-.6-1.5.2-2.4,1.4-2.2,2.8.2,1.5,1.4,2.4,2.9,2.2.5,0,.9-.2,1.4-.5l-.3-2.3Z"/>
      <path d="M177.3,238.8l-2-1.8h0s-1.5.4-1.5.4l.5,2.1-1.8.4-1.9-7.7,3.3-.8c2-.5,3.6.3,4,2,.3,1.1,0,2.1-1,2.8l2.3,2-1.9.5ZM174.1,233l-1.4.4.6,2.7,1.4-.3c1.1-.3,1.5-.9,1.3-1.7-.2-.8-.9-1.2-2-.9Z"/>
      <path d="M185.2,234.5l-3.5,1.2v1.8c0,0-1.9.6-1.9.6l.7-8.6,1.7-.6,6,6.3-1.8.6-1.2-1.4ZM184.2,233.3l-2.2-2.4-.2,3.3,2.4-.8Z"/>
      <path d="M193.5,227.1c.8,1.6,0,3.1-1.9,4l-1.4.7.9,2-1.6.8-3.4-7.1,3.1-1.5c1.9-.9,3.6-.5,4.3,1.1ZM191.8,227.9c-.4-.8-1.1-1-2.1-.5l-1.3.6,1.2,2.5,1.3-.6c1-.5,1.3-1.2.9-1.9Z"/>
      <path d="M199.4,220.3l4.1,6.7-1.6,1-1.7-2.8-3.1,1.9,1.7,2.8-1.6,1-4.1-6.7,1.6-1,1.6,2.6,3.1-1.9-1.6-2.6,1.6-1Z"/>
      <path d="M200.7,219.3l1.5-1.1,4.6,6.4-1.5,1.1-4.6-6.4Z"/>
      <path d="M205.7,220.6c-1.5-1.8-1.2-4.3.6-5.9,1-.9,2.2-1.2,3.4-1l-.2,1.6c-.8-.1-1.5,0-2.1.6-1.1,1-1.3,2.4-.3,3.6s2.4,1.3,3.6.3c.6-.5.9-1.2.9-2h1.6c0,1.2-.5,2.4-1.6,3.2-1.9,1.6-4.4,1.4-5.9-.4Z"/>
      <path d="M211.7,209.9l2.4-2.7c1.7-1.9,4-2.2,5.8-.6,1.8,1.6,1.8,3.9,0,5.9l-2.4,2.7-5.9-5.2ZM218.8,211.6c1-1.2,1-2.6-.1-3.6s-2.5-.9-3.5.3l-1.1,1.2,3.6,3.2,1.1-1.2Z"/>
      <path d="M226.4,201.9l1.2.9-3.6,4.9-6.4-4.6,3.5-4.8,1.2.9-2.4,3.4,1.4,1,2.1-3,1.2.8-2.1,3,1.5,1.1,2.5-3.5Z"/>
      <path d="M227.6,201.3l-.9-1.2c.8-.3,1.6-1,2-1.8.6-.9.5-1.5,0-1.7-1.3-.8-2.7,3.7-5.3,2.2-1.2-.7-1.6-2.2-.4-4.1.5-.9,1.2-1.6,2-2l.9,1.2c-.7.4-1.3,1-1.6,1.6-.6.9-.4,1.5,0,1.7,1.2.7,2.7-3.7,5.2-2.2,1.1.7,1.5,2.2.4,4.1-.6,1.1-1.6,2-2.4,2.3Z"/>
      <path d="M225.3,191.1l.8-1.6,7,3.6-.8,1.6-7-3.6Z"/>
      <path d="M232.5,184.6l.6-1.5,3,1.2c.3,1.1.1,2.3-.3,3.3-1,2.3-3.2,3.3-5.4,2.4-2.2-.9-3.1-3.3-2.1-5.6.5-1.3,1.4-2.2,2.5-2.5l.5,1.5c-.8.3-1.3.8-1.6,1.5-.6,1.4,0,2.8,1.3,3.4,1.4.6,2.7,0,3.3-1.4.2-.5.3-.9.2-1.4l-2.1-.9Z"/>
      <path d="M232.1,173.3l7.6,2.2-.4,1.4-5.7,2.4,4.6,1.4-.5,1.7-7.6-2.2.4-1.4,5.7-2.4-4.6-1.4.5-1.7Z"/>
    </g>
    <g>
      <path d="M71.5,128.1l7.6,2-.5,1.8-3.1-.8-.9,3.5,3.1.8-.5,1.8-7.6-2,.5-1.8,3,.8.9-3.5-3-.8.5-1.8Z"/>
      <path d="M72.3,125.9l.6-1.7,7.4,2.6-.6,1.7-7.4-2.6Z"/>
      <path d="M79.4,118.6l.7-1.5,2.9,1.3c.2,1.1,0,2.3-.4,3.3-1,2.3-3.3,3.2-5.5,2.3s-3-3.3-2-5.6c.6-1.3,1.5-2.1,2.6-2.5l.5,1.5c-.8.3-1.3.8-1.6,1.5-.6,1.4-.1,2.8,1.3,3.4,1.3.6,2.7,0,3.3-1.3.2-.5.3-.9.3-1.4l-2.1-.9Z"/>
      <path d="M81.3,107.2l6.8,4-.9,1.6-2.8-1.6-1.8,3.1,2.8,1.6-.9,1.6-6.8-4,.9-1.6,2.7,1.6,1.8-3.1-2.7-1.6.9-1.6Z"/>
      <path d="M89.5,96.3l4,7.6-1.1,1.4-8.3-2.3,1.2-1.5,5.9,1.7-2.9-5.4,1.1-1.4Z"/>
      <path d="M93,98.3c-1.7-1.7-1.6-4.2.2-5.9,1.8-1.7,4.3-1.8,5.9-.2,1.7,1.7,1.6,4.2-.2,5.9-1.8,1.8-4.3,1.8-5.9.2ZM97.8,93.6c-1.1-1.1-2.5-1-3.5,0-1,1-1,2.5,0,3.5s2.5,1,3.5,0c1-1,1-2.5,0-3.5Z"/>
      <path d="M97.9,88.2l1.4-1.2,4,5,3.1-2.5.9,1.2-4.5,3.6-5-6.1Z"/>
      <path d="M106,87.3l-2.4-3.7,1.5-1,2.4,3.6c.8,1.2,1.7,1.4,2.6.8.9-.6,1.1-1.5.3-2.7l-2.4-3.6,1.5-1,2.4,3.7c1.3,1.9.9,3.7-1,5-1.9,1.2-3.7.9-5-1Z"/>
      <path d="M121.7,82.1l-2.1-4.2-.3,4.5-.7.4-3.8-2.4,2.1,4.1-1.5.8-3.5-7,1.3-.7,4.8,3.1.4-5.7,1.3-.7,3.6,7-1.5.8Z"/>
      <path d="M130.1,77.3l.5,1.4-5.7,2.1-2.7-7.4,5.6-2.1.5,1.4-3.9,1.4.6,1.6,3.4-1.3.5,1.3-3.4,1.3.6,1.7,4-1.5Z"/>
      <path d="M133.8,73.7c-.2-.8.3-1.5,1-1.7.7-.2,1.5.2,1.7,1,.2.8-.3,1.5-1,1.7-.8.2-1.5-.3-1.7-1.1Z"/>
      <path d="M148.3,67.2l.9,7.8-1.8.2-.4-3.2-3.6.4.4,3.2-1.8.2-.9-7.8,1.8-.2.4,3.1,3.6-.4-.4-3.1,1.8-.2Z"/>
      <path d="M150.6,67.2h1.8c0,0,.3,7.8.3,7.8h-1.8c0,0-.3-7.8-.3-7.8Z"/>
      <path d="M160,71h1.7c0,0-.1,3.3-.1,3.3-.9.6-2.1.9-3.2.9-2.5,0-4.2-1.9-4.1-4.2,0-2.4,2-4,4.5-3.9,1.4,0,2.5.6,3.2,1.5l-1.2,1c-.6-.6-1.2-.9-2-1-1.5,0-2.6.9-2.7,2.4,0,1.5,1,2.6,2.5,2.6.5,0,1,0,1.4-.3v-2.3Z"/>
      <path d="M171.3,68.5l-1.2,7.8-1.8-.3.5-3.2-3.5-.5-.5,3.2-1.8-.3,1.2-7.8,1.8.3-.5,3.1,3.5.5.5-3.1,1.8.3Z"/>
      <path d="M178.1,76.8l-.4,1.4-5.9-1.5,2-7.6,5.8,1.5-.4,1.4-4-1-.4,1.7,3.5.9-.4,1.4-3.5-.9-.5,1.8,4.2,1.1Z"/>
      <path d="M183.7,80.3l-.7-2.6h0s-1.5-.6-1.5-.6l-.8,2.1-1.7-.6,2.7-7.4,3.2,1.2c2,.7,2.8,2.2,2.2,3.9-.4,1.1-1.3,1.7-2.4,1.8l.8,3-1.8-.7ZM184.3,73.7l-1.4-.5-.9,2.6,1.4.5c1,.4,1.8,0,2-.7.3-.8,0-1.5-1.1-1.9Z"/>
      <path d="M189.3,81.8l1.2-.9c.4.7,1.1,1.5,1.9,1.9,1,.5,1.5.4,1.7,0,.7-1.3-3.8-2.5-2.5-5.1.6-1.2,2.1-1.7,4.1-.6.9.5,1.7,1.1,2.1,1.9l-1.1,1c-.5-.7-1-1.2-1.6-1.6-1-.5-1.5-.3-1.7,0-.7,1.3,3.8,2.5,2.5,5.1-.6,1.2-2.1,1.7-4.1.6-1.1-.6-2-1.5-2.4-2.3Z"/>
      <path d="M200.5,81.7l-2.1-1.4.8-1.2,5.8,3.7-.8,1.2-2.1-1.4-3.5,5.4-1.5-1,3.5-5.4Z"/>
      <path d="M206.5,91.8l-2.9-2.3-1.6.9-1.5-1.2,7.6-4,1.4,1.1-2.1,8.4-1.5-1.2.5-1.8ZM206.9,90.4l.9-3.1-2.9,1.6,2,1.6Z"/>
      <path d="M218.6,94.7l-5.5,5.6-1.1-1.1.6-6.2-3.4,3.4-1.3-1.3,5.5-5.6,1.1,1.1-.6,6.2,3.4-3.4,1.3,1.3Z"/>
      <path d="M220.4,96.6l2.3,2.8c1.6,2,1.5,4.4-.3,5.9-1.9,1.5-4.2,1.1-5.8-.9l-2.3-2.8,6.1-5ZM217.6,103.3c1,1.2,2.4,1.4,3.5.5s1.3-2.3.3-3.5l-1-1.3-3.8,3.1,1,1.3Z"/>
      <path d="M224.1,112.2l-2-3.1-1.8.3-1-1.6,8.5-1.3,1,1.5-4.7,7.2-1-1.6,1-1.5ZM225,111l1.9-2.7-3.2.6,1.3,2.1Z"/>
      <path d="M226.7,120.4l1.3-2.3h0c0,0-.7-1.5-.7-1.5l-2,1-.8-1.6,7-3.5,1.5,3c.9,1.9.6,3.5-1,4.3-1.1.5-2.1.4-2.9-.3l-1.5,2.7-.9-1.8ZM231.6,116l-.7-1.3-2.5,1.2.7,1.3c.5,1,1.2,1.3,2,.9.8-.4,1-1.1.5-2.1Z"/>
      <path d="M235.4,120.5l1.2,3.4c.9,2.4,0,4.6-2.2,5.4-2.2.8-4.3-.3-5.2-2.7l-1.2-3.4,7.4-2.7ZM230.6,126c.5,1.5,1.8,2.1,3.2,1.6,1.4-.5,1.9-1.8,1.4-3.3l-.6-1.6-4.6,1.7.6,1.6Z"/>
      <path d="M231.6,131.1l1.5.3c-.3.8-.4,1.8-.1,2.7.3,1,.7,1.4,1.2,1.3,1.4-.4-.7-4.6,2.1-5.3,1.3-.3,2.6.4,3.2,2.6.2,1,.3,2,0,2.8l-1.5-.2c.2-.8.2-1.6,0-2.3-.3-1-.8-1.3-1.2-1.2-1.4.4.7,4.5-2.1,5.3-1.3.3-2.6-.4-3.2-2.6-.3-1.2-.3-2.5,0-3.3Z"/>
    </g>
  </g>
</svg>