<?xml version="1.0" encoding="UTF-8"?>
<svg id="Layer_1" xmlns="http://www.w3.org/2000/svg" version="1.1" viewBox="0 0 42.4 47.9">
  <!-- Generator: Adobe Illustrator 30.5.1, SVG Export Plug-In . SVG Version: 2.1.4 Build 3)  -->
  <defs>
    <style>
      .st0 {
        fill: #fff;
      }
    </style>
  </defs>
  <path d="M42.3,33.7c.3-2-1-3.8-3.1-4.2-.8-.1-1.8-.2-2.6-.2.9-.8,1.6-1.9,2-3.2,1.2-1,2.4-2.1,2.9-3.7.5-1.5.4-4.5.3-5.4-.3-5.1-4.8-7.3-6.3-8-.2-.1-.5-.2-.8-.3,0,0-.2,0-.3-.1,0,0,0-.1-.2-.2-.8-.9-1.6-1.6-2.6-2.3-3.4-2.4-7.8-3.7-12.5-3.7s-4.9.4-7,1.1c-1.9-.6-4.1-1.4-5.9-2.5h0c-.5-.4-1.3-1-2.5-1S1.3.5.6,1.5C0,2.5-.2,3.7.3,4.9v.2s0,.2,0,.3c-.4,1-.3,2.2.3,3.2.4.7.9,1,1.2,1.2.5.3,1,.7,1.5.9-1.7,2.8-2.2,5.9-1.5,8.8-.5,1.3-1,2.8-.9,4.7.1,2.2,1.6,5,2.9,6.4,0,.3,0,.7,0,1-1.1,1.6-1.8,3-1.7,5.4v.8h0c0,1.5,0,3.6,1,5.3.9,1.4,2.8,3.1,6.8,3.1s2.7-.2,3.7-.4c.9,1.1,2.2,2.1,4.2,2.1s1.9-.2,3.1-.8c2.4-1.1,4.6-2.5,6.7-4.3.9-.8,1.8-1.6,2.8-2.6,1.9-.3,3.6-.5,5.1-.5h2.7c1.9,0,2.8-1.1,3.2-1.6.7-1.1.8-2.4.2-3.5,0-.3.3-.6.3-1h.4Z"/>
  <path class="st0" d="M12.4,9.6c.5.1.9.2,1.4.4.3,0,.5.2.8.2l.4-2-2.5-.6c-.2,0-.1.3-.2.5,0,.4-.3.9-.3,1.3s.1.2.3.3h.1Z"/>
  <polygon class="st0" points="18.3 10.9 18.7 8.9 16 8.4 15.6 10.4 18.3 10.9"/>
  <path class="st0" d="M11.2,9.1c0-.3.1-.6.2-.9,0-.3.2-.6.2-.9l-2.7-.8-.4,1.9,2.7,1v-.2h0Z"/>
  <path class="st0" d="M23.3,10.3c-.1.5-.3.9-.3,1.4l2.8.5.3-2c-.3,0-2.6-.6-2.7-.5s-.1.5,0,.6Z"/>
  <path class="st0" d="M19.6,9.6c0,.2-.3,1.4-.3,1.4l2.7.5.4-2.1-2.7-.4c-.1,0,0,.5-.1.6Z"/>
  <path class="st0" d="M18.7,35.2c0,.3.2.5.3.7h0c.2.2.7-.1.9-.2.1,0,.3,0,.3-.2s-.3-.6-.4-.7c-.1,0-.5-.4-.7-.4-.3,0-.6.6-.6.8h.2Z"/>
  <path class="st0" d="M7.8,28.6v.4c0,.6,0,1.3.2,1.9.4,1.5,2.1,1.3,3.1.5.2-.2.5-.5.7-.7.4-.2.8,0,.8.5s-.5.5-.5.8.1.9,0,1.2c.2,0,.3,0,.4-.2.5-.2.9-.3,1.3,0,.4-.6,1.1-1.3,1.8-.9,0-.3.3-.6.5-.7.4-.3,1.3-.4,1.7-.2l.3.2c.3-.8,1.2-1.1,2-.9.2-.6.7-1.1,1.4-1.1,0-.2-.2-.3-.2-.5-.5-1.4-1.1-3.1.5-4.1,1.3-.8,2.9-.9,4.3-1.5,1-.4,1.7-1.1,2.6-1.7,1-.7,1.6-.6,2.6-.9.3,0,.4-.4.8-.3.4.2.4.7,0,.9-.4.3-1,.4-1.5.5,0,.2-.1.4-.2.6-.2.8-.3,1.8-.2,2.6,0,.4.4.8.2,1.2-.1.2-.5.3-.7.1l-.2-.2c-.2-.3-.3-1-.3-1.3,0-.8,0-1.7.2-2.6h-.1c-.2.1-.4.3-.6.4-.5.4-1.1.8-1.6,1.1-.6.3-1.2.6-1.9.8-.1,0,0,.3,0,.4.5,1.2,1,2.3,1.5,3.4.7,1.8,1.3,2.9-.1,4.6,0,0-.5.4-.4.5.7-.2,1.4-.3,2.1-.5l2.1-.4c.3-.6.2-1.4,0-2-.3-1.1-.9-1.9-1.4-2.9s-.8-1.6-1.1-2.4c0-.1-.1-.2-.2-.3-.1-.4,0-.8.4-.8s.4.1.4.2v.2c.2.3.3.6.5,1,.3.6.5,1.1.8,1.7,0,0,.4.1.5.1,2.2,0,3.8-1.2,4.4-3.3.5-1.7.6-5.6,0-7.3-.3-.8-.6-.9-1.4-1.3-2.8-1.3-6.2-2-9.2-2.5-.7-.1-1.4-.3-2.1-.4-.1,0-.2.2-.3.3-1,1.9,1.5,3.3,2.4,4.6.3.4.6,1,1.1,1.4.8.6,2.1.4,3,0,.2,0,.4-.3.6-.3.4,0,.7.5.5.8-.1.2-.7.5-1,.5-1.5.6-3.4.4-4.3-.9-.1-.1-.2-.3-.3-.5-.5-.7-1.1-1.3-1.7-2-1-1.1-1.8-2.1-1.2-3.8,0,0,.2-.4.1-.4-1.8-.3-3.6-.6-5.3-.9-1.7-.4-3.4-.8-5.1-1.3-.4,0-1-.4-1.3-.4h-.2c-1.9,1.8-3.5,4.3-3.5,7s0,1,0,1.4h0c.2-.3.3-.6.4-.9,0-.2.2-.3.5-.3s.5.3.5.5-.2.4-.2.5c-.9,1.8-2.3,3.8-2,6,0,1.1,1,2.8,1.8,3.7.2.2.9.8,1,1h.1ZM13.9,16.3c2-1.3,4.3-1.3,6.2,0,2,1.5,2.3,4,.7,6.1-1.7,2.3-4.1,1.2-5.9-.3-1.9-1.5-3.8-4.1-1-5.9h0ZM9.9,22.3c.2-1,1.2-.4,1.8,0,.5.4,1.1,1,1.5,1.4.7.7,2.1,2.5,2.2,3.5,0,.6-.3,1.4-.8,1.8s-.8.4-1.3.1h-.1c-.4-.1-.3.1-.4.4-.2.5-.6.5-1,.2-.7-.5-.8-2-.9-2.8v-2c-.2-.8-1.1-1.8-1-2.5h0ZM6,26c-1-1.6-1-5.5,1.3-6,.5-.1,1.7-.1,2.1.3.1.2.1.5.1.7s0,.5-.1.7c0,1,.3,1.3.5,2.2.3,1.1.5,2.6-.4,3.4-1.1.9-2.8-.4-3.4-1.4h0Z"/>
  <path class="st0" d="M23.7,33.7v-.3c.2-.4.1-.5,0-.8,0,0-.2-.3-.3-.3s-.5.2-.6.3-.2.5-.1.7v.2c.1,0,.4.2.5.2,0,0,.5,0,.5,0Z"/>
  <path class="st0" d="M25.9,36.8s-.2-.9-.3-1c0-.2-.2-.8-.3-.9,0,0-1.8.5-2,.6-.2,0-.4,0-.6.2l.4,1.9,2.8-.8Z"/>
  <path class="st0" d="M36.3,14.2c-.3-.3-.6-.5-.9-.7,0,0-1-.7-1.1-.6,0,0-.2,1.6-.3,1.8l2.1,1.2c0-.5,0-1.1.2-1.6h0Z"/>
  <path class="st0" d="M37.6,17.1s0,.2.2.2v-.8s-.3-.9-.4-1.1l-.2-.2c0,.2,0,.5,0,.7v.6c0,.2.4.5.5.6Z"/>
  <path class="st0" d="M27.1,10.4l-.3,2,2.6.6.3-2-1.3-.4c-.2,0-1.2-.3-1.3-.2Z"/>
  <path class="st0" d="M19.9,32.6c.3-.2.4-.6.3-.9-.3-.8-1.2-.4-1.2.4s.1.6.2.6h.7Z"/>
  <path class="st0" d="M5.7,5.2c0,0,0,.3,0,.4,0,.4-.2.9-.3,1.3,0,0,.2,0,.3.2.3.2.8.4,1.1.5,0,0,.6.3.7.2l.5-1.8c-.5-.2-1-.4-1.4-.6-.2,0-.6-.4-.7-.3h0Z"/>
  <path class="st0" d="M37.7,19.7s-.4.4-.5.5c0,0,0,0,0,.1,0,.2.2,1,.3,1.1h0c0-.1.3-.6.3-.7v-.9c0-.2,0,0,0,0h0Z"/>
  <path class="st0" d="M14.3,7c.5.2,1,.2,1.4.3,4.4.9,8.8,1.4,13.1,2.5.5.1.9.3,1.4.4,0,0,.2,0,.3.1.1,0,0-.2-.1-.3-.5-.5-1.3-1.1-1.9-1.4-4-2.4-9.5-3.1-14-1.8,0,0-.2,0-.3,0h.1Z"/>
  <path class="st0" d="M33.1,14.3l.2-2c-.3-.1-.6-.3-.8-.4h-.2c-.2,0-1.5-.6-1.6-.5l-.3,2,2.7.9Z"/>
  <path class="st0" d="M36.3,21.4v1.3l.3-.2c.2-.2-.2-.9-.2-1.2h0c0,.1,0,.1,0,.1Z"/>
  <path class="st0" d="M36,17l.2.8v1.7c.2,0,.6-.3.6-.4,0-.1.5-.5.5-.7s-.5-.8-.6-1h0s-.5-.5-.5-.4h-.1ZM36.9,18.7c0,.1-.2.3-.3.4v-.9c0,.2.2.4.3.5Z"/>
  <path class="st0" d="M36.6,33.3h-2.9l.3,2.1h3v-2.1h-.4Z"/>
  <path class="st0" d="M14.9,36.7c-.3,0-.7,0-.7.5s.5.6.7.6c0,0,.7-.2.8-.2.3-.4-.4-.8-.8-.9Z"/>
  <path class="st0" d="M13.3,37.8c-.2-.5-.2-.8,0-1.3h-.4c-.7,0-1.3-.7-1.5-1.4v-.6c0-.2-.2-.4-.1-.6-.2,0-.3,0-.5.2-1.4.7-2.3,1.4-3.3,2.7-.2.3-.5.6-.6,1h0c.2.2.3.3.5.4,1.3.8,3.4.6,4.9.4.2,0,1.3-.3,1.4-.3,0,0-.1-.3-.2-.3l-.2-.2ZM12.1,38.4c-.8,0-1.5.2-2.1.2-1.1,0-1.9-.2-2.5-.5,0,0-.2,0-.2-.2,0-.2.3-.4.4-.6h0c1-1.4,2-2.1,3.2-2.7h0v.7c.2.8,1,1.5,1.8,1.6,0,.4,0,.7.1,1.1-.3,0-.7.2-.9.2l.2.2Z"/>
  <path class="st0" d="M14.9,39.2v-.3l-2.7.6.2,2.1c.4,0,.7-.2,1-.2l1.8-.5s0-.6-.1-.7c0-.3-.1-.6-.2-.9h0Z"/>
  <path class="st0" d="M8.8,39.7l-.2,2.1c.9.2,1.8,0,2.8,0l-.2-2.1h-2.4Z"/>
  <path class="st0" d="M19.7,38.9l2.5-.9v-.3l-.4-1.6h-.2c-.3,0-.7.3-.9.4-.2,0-1.3.6-1.4.6,0,0,.1.8.2,1,0,0,.2.8.2.8Z"/>
  <path class="st0" d="M30.1,33.8l.4,2,2.4-.3-.3-2.1c-.8,0-1.6.2-2.5.3h0Z"/>
  <polygon class="st0" points="18.8 39.4 18.4 37.5 15.8 38.5 16.2 40.5 18.8 39.4"/>
  <path class="st0" d="M39.2,35.5c-.2-.2-.5-.2-.8-.2h-.2v-1.4h.6c.2,0,0,0,0,0,.3,0,.7-.3.8-.7,0-.5-.3-1-.9-1.1-.7,0-1.6,0-2.3,0s-.4,0-.5,0h-.2c-.8,0-1.6,0-2.4,0h-1.2v-.8c0-.8-.4-1.7-.8-2.6,2.5-.4,4.1-1.5,4.9-3.7,0,0,0-.2,0-.4v-.3h0s0,0,.2-.1c1.1-.8,2.1-1.7,2.5-2.8.4-1.1.2-4.3.2-4.4-.2-3.1-2.8-4.7-4.8-5.7,0,0-.4-.2-.7-.3s-.9-.4-1-.4c0,0,0-.2-.2-.3,0-.1-.2-.2-.2-.3-.6-.7-1.3-1.3-2.2-1.9-2.9-2.1-6.8-3.2-10.9-3.2s-4.6.4-6.5,1.1c-.1,0-.2,0-.3,0h-.1c-.1,0,0,0,0,0-2.3-.7-5-1.6-7.4-3,0,0,0,0-.2-.2-.3-.2-.6-.4-.9-.4s-.6,0-.7.4c-.2.3-.2.6,0,.9,0,.2.4.5,1.2,1h0s.2,0,.2.2l-.2.8c0,0-.3,0-.5,0h-.3c-.2,0-.4.3-.5.5,0,.3,0,.6,0,.9s.2.2.3.3h0c1.2.9,2.8,1.6,4.1,2.1h0c-1.9,2.1-3.9,5.4-3,9.4,0,.1,0,.2,0,.3v.5c-.6,1.3-1.1,2.5-1,4.1,0,1.5,1.2,3.7,2.2,4.8,0,0,.2.2.3.3,0,0,.2.2.3.3h0c0,1,0,2,.5,2.8,0,0-.2.2-.3.3-.2.2-.3.4-.5.6-.9,1.3-1.3,2.2-1.3,3.9v.9c0,1.3,0,2.7.5,3.6.8,1.2,2.3,1.9,4.6,1.9s3.5-.4,4.4-.6h.5c0,0,.1.2.2.3,0,0,.2.3.2.4.9,1.3,1.6,1.8,2.6,1.8s1.2-.2,2-.5c2.1-.9,4.1-2.2,6.1-3.9,1-.9,2.1-1.9,3.3-3.1,2.4-.4,4.4-.6,6.4-.7h2.9c0,0,.6,0,.9-.4.3-.4.2-.9-.2-1.2v.2ZM39.1,36.3c-.2.3-.6.2-.9.2-.9,0-1.7,0-2.7,0-2.2,0-4.4.3-6.5.7-1.1,1.1-2.2,2.2-3.3,3.1-1.8,1.5-3.8,2.8-6,3.8-2,.9-3,.7-4.2-1.1-.2-.3-.4-.7-.6-.9-.2,0-.5.2-.7.2-2.3.6-7,1.4-8.5-1.1-.7-1.1-.4-3.1-.4-4.4s.3-2.4,1.2-3.7c.3-.4.6-.7.9-1.1-.5-.9-.5-2-.6-3,0,0-.6-.6-.7-.7-.9-1-2-3.2-2.1-4.5,0-1.6.4-2.7,1-4.1.2-.4,0-.6-.2-.9-.8-3.4.6-6.6,2.9-9.1,0,0,.4-.3.4-.4-.2,0-.3,0-.4-.2-1.4-.6-2.9-1.2-4.1-2.1,0,0-.2,0-.3-.2-.2-.3,0-.7.3-.8.5-.2.6.2,1,.3l.4-1.6h0c0,0-.3-.2-.5-.3-.2,0-1-.6-1.1-.8,0-.4,0-.8.5-.8s.7.4,1,.6c2.3,1.4,4.9,2.3,7.5,3.1.3,0,.4,0,.6-.2,5.4-1.9,12.5-1.2,17.2,2.1.8.6,1.4,1.1,2.1,1.9,0,.2.3.5.5.6.2.2,1.4.6,1.8.8,2.2,1.1,4.4,2.6,4.6,5.4,0,1,0,3.4-.2,4.2-.4,1.1-1.5,2-2.4,2.7,0,0-.2,0-.3.2,0,0-.2.7-.2.8-.9,2.4-2.6,3.3-5,3.5-.2,0,0,0,0,.2.4.8.8,1.8.9,2.7v1.1h.6c1.2,0,2.3-.2,3.5-.2s2.1,0,2.9,0c.4,0,.6.3.6.7s-.3.4-.4.4c-.2,0-1,0-1,0,0,.7,0,1.4,0,2.1.3,0,.8,0,1.1.2s.3.5.2.7h-.5Z"/>
  <path class="st0" d="M6.2,36.6l1.2-1.4c0,0-.2-.4-.3-.5,0,0,0-.4-.3-.3,0,0-.4.8-.4.9s0,.5-.2.6v.6h0Z"/>
  <path class="st0" d="M29.2,34.1v-.2c-.8.2-1.5.3-2.3.5,0,0-.5,0-.5.2l.6,1.9,2.6-.5s-.1-.7-.1-.8c0-.4-.1-.7-.2-1.1h-.1Z"/>
  <path class="st0" d="M16.6,41.4c-.1,0-.7.2-.7.3.7,1,1.1,2.1,2.5,1.7.4,0,.9-.3,1.2-.5,2.6-1.2,4.9-3,6.9-4.9l.4-.5c-2,.5-4,1.1-6,1.9-1.5.6-2.9,1.3-4.4,1.9h0Z"/>
  <path class="st0" d="M6.8,39s-.2,0-.3-.2c0,0,0,0-.2,0-.2.9-.2,1.7.5,2.3,0,0,.7.6.8.3,0-.4,0-.8,0-1.1,0,0,0-.7,0-.7-.4,0-.7-.2-1.1-.4l.2-.2Z"/>
  <path class="st0" d="M21.8,31.9h.2v-.6c0-.4-.3-1.4-.8-.9s-.2,1,0,1.3c.1.3.3.3.6.2Z"/>
  <path class="st0" d="M17.6,33.7c.5,0,.4-1.3,0-1.6-.2,0-.2,0-.4,0-.4,0-.5.2-.5.6s.4,1.2.9,1.1h0Z"/>
  <path class="st0" d="M16.6,36.3s.3.5.3.6h.1c.4,0,.7-.3,1.1-.5q0-.2-.1-.3c-.1-.2-.3-.4-.5-.5h-.9c-.1,0,0,.4,0,.5v.2Z"/>
  <path class="st0" d="M8.8,33c-.2,0-.5-.2-.7-.2s-.1,0-.2.2c0,0-.2.2-.3.3,0,0-.2.2-.2.4,0,0,.5.7.5.8.2.2.5,0,.7-.3.3-.2.7-.4,1-.6,0,0-.2-.4-.2-.5h-.6Z"/>
  <path class="st0" d="M20.6,33.9c0,.3.4.8.6.9.1,0,.5,0,.6,0,.2-.2.3-.6.2-.9,0-.5-.6-.8-1.1-.5-.1,0-.4.4-.4.5h0Z"/>
  <path class="st0" d="M15.5,33.2h0c-.3-.3-.7.2-.7.5s.2.5.3.6c0,0,.2.2.2.2,0,0,.2.3.4,0,.1,0,0-1,0-1.2s0,0-.1-.2h0Z"/>
  <path class="st0" d="M13.4,33.9c-.4,0-1,.3-1,.7s.4.9.8.9.6,0,.6-.2v-.7s-.1-.5-.2-.5l-.3-.2h0Z"/>
</svg>